<svg xmlns="http://www.w3.org/2000/svg" xmlns:xlink="http://www.w3.org/1999/xlink" preserveAspectRatio="xMidYMid meet" version="1.0" viewBox="0.0 -0.0 480.0 165.7" zoomAndPan="magnify" style="fill: rgb(0, 0, 0);" original_string_length="2094"><g><g id="__id195_skd5kpnrfk"><path d="m476.99,93.16v53.3c0,4.49-1.82,8.56-4.76,11.5-2.94,2.94-7.01,4.76-11.5,4.76H19.26c-4.49,0-8.56-1.82-11.5-4.76s-4.76-7.01-4.76-11.5v-53.3h473.99Z" style="fill: rgb(25, 25, 25);"/></g><g id="__id196_skd5kpnrfk"><path d="m460.73,165.71H19.26c-5.15,0-9.98-2-13.62-5.64s-5.64-8.48-5.64-13.62v-53.3c0-1.66,1.34-3,3-3s3,1.34,3,3v53.3c0,3.54,1.38,6.87,3.88,9.38,2.5,2.5,5.83,3.88,9.38,3.88h441.47c3.54,0,6.87-1.38,9.38-3.88,2.5-2.51,3.88-5.84,3.88-9.38v-53.3c0-1.66,1.34-3,3-3s3,1.34,3,3v53.3c0,5.15-2,9.98-5.64,13.62s-8.48,5.64-13.62,5.64Z" style="fill: inherit;"/></g><g id="__id197_skd5kpnrfk"><rect height="139.12" rx="16.26" ry="16.26" width="473.99" x="3" y="3" style="fill: rgb(255, 255, 255);"/></g><g id="__id198_skd5kpnrfk"><path d="m387.48,6h-17.34c-1.66,0-3-1.34-3-3s1.34-3,3-3h17.34c1.66,0,3,1.34,3,3s-1.34,3-3,3Z" style="fill: inherit;"/></g><g id="__id199_skd5kpnrfk"><path d="m3,75.56c-1.66,0-3-1.34-3-3V19.26c0-5.15,2-9.98,5.64-13.62C9.28,2,14.12,0,19.26,0h333.56c1.66,0,3,1.34,3,3s-1.34,3-3,3H19.26c-3.54,0-6.87,1.38-9.38,3.88-2.5,2.51-3.88,5.84-3.88,9.38v53.3c0,1.66-1.34,3-3,3Z" style="fill: inherit;"/></g><g id="__id200_skd5kpnrfk"><path d="m83.99,145.12H19.26c-5.15,0-9.98-2-13.62-5.64s-5.64-8.48-5.64-13.62v-32.7c0-1.66,1.34-3,3-3s3,1.34,3,3v32.7c0,3.54,1.38,6.87,3.88,9.38,2.51,2.5,5.84,3.88,9.38,3.88h64.73c1.66,0,3,1.34,3,3s-1.34,3-3,3Z" style="fill: inherit;"/></g><g id="__id201_skd5kpnrfk"><path d="m460.73,145.12H103.58c-1.66,0-3-1.34-3-3s1.34-3,3-3h357.16c3.54,0,6.87-1.38,9.38-3.88,2.5-2.5,3.88-5.83,3.88-9.38V19.26c0-3.54-1.38-6.87-3.88-9.38-2.51-2.51-5.84-3.89-9.38-3.89h-54.73c-1.66,0-3-1.34-3-3s1.34-3,3-3h54.73c5.15,0,9.98,2,13.62,5.64,3.64,3.64,5.64,8.48,5.64,13.62v106.59c0,5.15-2,9.98-5.64,13.62s-8.48,5.64-13.62,5.64Z" style="fill: inherit;"/></g></g></svg>