<?xml version="1.0" standalone="no"?>
<!DOCTYPE svg PUBLIC "-//W3C//DTD SVG 20010904//EN"
 "http://www.w3.org/TR/2001/REC-SVG-20010904/DTD/svg10.dtd">
<svg version="1.0" xmlns="http://www.w3.org/2000/svg"
 width="200.000000pt" height="200.000000pt" viewBox="0 0 200.000000 200.000000"
 preserveAspectRatio="xMidYMid meet">

<g transform="translate(0.000000,200.000000) scale(0.100000,-0.100000)"
fill="#000000" stroke="none">
<path d="M233 1767 c-213 -213 -233 -235 -233 -267 0 -31 19 -53 217 -252
l218 -218 -213 -213 c-226 -227 -239 -245 -209 -303 9 -16 112 -125 230 -242
283 -281 231 -281 516 3 l216 214 216 -214 c207 -207 217 -215 254 -215 38 0
48 8 267 228 220 219 228 229 228 267 0 37 -8 47 -215 254 l-214 216 214 216
c284 285 284 233 3 516 -117 118 -226 221 -242 230 -58 30 -76 17 -303 -209
l-213 -213 -218 218 c-199 198 -221 217 -252 217 -32 0 -54 -20 -267 -233z
m1264 -485 c-228 -229 -235 -238 -206 -295 6 -12 103 -114 215 -227 l204 -205
-133 -133 -132 -132 -200 201 c-110 110 -212 207 -227 215 -62 32 -67 29 -300
-203 l-218 -218 -135 135 -135 135 215 215 c284 285 284 234 3 517 l-212 213
132 132 132 132 213 -212 c283 -281 232 -281 517 3 l215 215 135 -135 135
-135 -218 -218z"/>
</g>
</svg>
